<svg xmlns="http://www.w3.org/2000/svg" version="1.1" xmlns:xlink="http://www.w3.org/1999/xlink" width="200" height="200"><svg xmlns="http://www.w3.org/2000/svg" version="1.1" xmlns:xlink="http://www.w3.org/1999/xlink" viewBox="0 0 200 200"><rect width="200" height="200" fill="url('#gradient')"></rect><defs><linearGradient id="SvgjsLinearGradient1001" gradientTransform="rotate(240 0.5 0.5)"><stop offset="0%" stop-color="#d6bf22"></stop><stop offset="100%" stop-color="#a04057"></stop></linearGradient></defs><g><g fill="hsla(273,60%,21%,1)" transform="matrix(2.4355581983053365,0,0,2.4355581983053365,18.7624678455456,113.06797897377996)" stroke="hsla(225,49%,75%,1)" stroke-width="0.2"><path d="M0.51-5.36L0.51-5.36Q0.51-7.87 1.59-9.32Q2.68-10.76 4.62-10.76L4.62-10.76Q6.04-10.76 7.00-9.65L7.00-9.65L7.00-15L10.30-15L10.30 0L7.34 0L7.18-1.13Q6.16 0.20 4.60 0.20L4.60 0.20Q2.71 0.20 1.61-1.25Q0.51-2.70 0.51-5.36ZM3.81-5.76L3.80-5.16Q3.80-2.34 5.44-2.34L5.44-2.34Q6.53-2.34 7.00-3.26L7.00-3.26L7.00-7.29Q6.55-8.22 5.46-8.22L5.46-8.22Q3.94-8.22 3.81-5.76L3.81-5.76ZM17.29 0.20L17.29 0.20Q14.85 0.20 13.35-1.25Q11.85-2.71 11.85-5.03L11.85-5.03L11.85-5.30Q11.85-6.92 12.45-8.16Q13.05-9.40 14.20-10.08Q15.35-10.76 16.93-10.76L16.93-10.76Q19.16-10.76 20.45-9.38Q21.74-8.00 21.74-5.53L21.74-5.53L21.74-4.25L15.20-4.25Q15.37-3.36 15.97-2.85Q16.56-2.34 17.51-2.34L17.51-2.34Q19.07-2.34 19.95-3.44L19.95-3.44L21.46-1.66Q20.84-0.81 19.71-0.31Q18.58 0.20 17.29 0.20ZM16.91-8.22L16.91-8.22Q15.47-8.22 15.20-6.31L15.20-6.31L18.52-6.31L18.52-6.56Q18.54-7.35 18.12-7.79Q17.70-8.22 16.91-8.22ZM25.51-10.57L27.15-3.92L28.82-10.57L32.29-10.57L28.84 0L25.48 0L22.03-10.57L25.51-10.57ZM36.40-14.22L38.72-9.49L41.04-14.22L44.96-14.22L40.99-7.17L45.07 0L41.11 0L38.72-4.81L36.33 0L32.38 0L36.46-7.17L32.49-14.22L36.40-14.22ZM48.07-3.19L48.07-3.19Q48.85-3.19 49.37-2.73Q49.88-2.27 49.88-1.54Q49.88-0.82 49.37-0.36Q48.85 0.11 48.07 0.11L48.07 0.11Q47.28 0.11 46.76-0.36Q46.25-0.83 46.25-1.54Q46.25-2.26 46.76-2.72Q47.28-3.19 48.07-3.19ZM52.31-10.57L55.62-10.57L55.62 0.36Q55.61 2.24 54.54 3.25Q53.48 4.27 51.57 4.27L51.57 4.27Q50.75 4.27 50.02 4.10L50.02 4.10L50.02 1.61Q50.59 1.70 50.95 1.70L50.95 1.70Q52.31 1.70 52.31 0.34L52.31 0.34L52.31-10.57ZM52.07-13.29L52.07-13.29Q52.07-13.99 52.58-14.44Q53.09-14.89 53.90-14.89Q54.71-14.89 55.21-14.44Q55.72-13.99 55.72-13.29Q55.72-12.59 55.21-12.14Q54.71-11.69 53.90-11.69Q53.09-11.69 52.58-12.14Q52.07-12.59 52.07-13.29ZM63.01-2.97L63.01-2.97Q63.01-3.39 62.57-3.64Q62.13-3.90 60.90-4.17Q59.67-4.44 58.87-4.89Q58.07-5.33 57.65-5.97Q57.23-6.60 57.23-7.42L57.23-7.42Q57.23-8.88 58.43-9.82Q59.63-10.76 61.57-10.76L61.57-10.76Q63.66-10.76 64.93-9.81Q66.20-8.87 66.20-7.32L66.20-7.32L62.90-7.32Q62.90-8.59 61.56-8.59L61.56-8.59Q61.04-8.59 60.69-8.31Q60.34-8.02 60.34-7.59L60.34-7.59Q60.34-7.15 60.77-6.88Q61.20-6.60 62.14-6.43Q63.09-6.25 63.80-6.01L63.80-6.01Q66.18-5.19 66.18-3.07L66.18-3.07Q66.18-1.62 64.90-0.71Q63.61 0.20 61.57 0.20L61.57 0.20Q60.21 0.20 59.15-0.29Q58.09-0.78 57.49-1.62Q56.89-2.46 56.89-3.39L56.89-3.39L59.97-3.39Q59.99-2.66 60.46-2.32Q60.93-1.98 61.66-1.98L61.66-1.98Q62.33-1.98 62.67-2.26Q63.01-2.53 63.01-2.97Z"></path></g></g></svg><style>@media (prefers-color-scheme: light) { :root { filter: none; } }
@media (prefers-color-scheme: dark) { :root { filter: none; } }
</style></svg>